<svg width="264" height="48" viewBox="0 0 264 48" fill="none" xmlns="http://www.w3.org/2000/svg">
<circle cx="24" cy="24" r="24" fill="#757575"/>
<path d="M34 15.999C33.22 16.462 31.655 17.093 30.735 17.275C30.708 17.282 30.686 17.291 30.66 17.298C29.847 16.496 28.733 15.999 27.5 15.999C25.015 15.999 23 18.014 23 20.499C23 20.63 22.989 20.871 23 20.999C19.647 20.999 17.095 19.243 15.265 16.999C15.066 17.499 14.979 18.289 14.979 19.031C14.979 20.432 16.074 21.808 17.779 22.661C17.465 22.742 17.119 22.8 16.759 22.8C16.178 22.8 15.563 22.647 15 22.183C15 22.2 15 22.216 15 22.234C15 24.192 17.078 25.525 18.926 25.896C18.551 26.117 17.795 26.139 17.426 26.139C17.166 26.139 16.246 26.02 16 25.974C16.514 27.579 18.368 28.481 20.135 28.513C18.753 29.597 17.794 29.999 14.964 29.999H14C15.788 31.145 18.065 32 20.347 32C27.777 32 32 26.337 32 20.999C32 20.913 31.998 20.733 31.995 20.552C31.995 20.534 32 20.517 32 20.499C32 20.472 31.992 20.446 31.992 20.419C31.989 20.283 31.986 20.156 31.983 20.09C32.773 19.52 33.458 18.809 34 17.999C33.275 18.321 32.497 18.537 31.68 18.635C32.514 18.135 33.699 16.943 34 15.999Z" fill="#111111"/>
<circle cx="96" cy="24" r="24" fill="#757575"/>
<path d="M101.525 20.9999H98V18.9999C98 17.9679 98.084 17.3179 99.563 17.3179H101.431V14.1379C100.522 14.0439 99.608 13.9979 98.693 13.9999C95.98 13.9999 94 15.6569 94 18.6989V20.9999H91V24.9999L94 24.9989V33.9999H98V24.9969L101.066 24.9959L101.525 20.9999Z" fill="#111111"/>
<circle cx="168" cy="24" r="24" fill="#757575"/>
<path d="M161.68 14L163.158 19.3438V21.9062H164.439V19.3438L165.938 14H164.646L164.109 16.4316C163.958 17.1416 163.862 17.6463 163.818 17.9473H163.779C163.716 17.5263 163.62 17.0179 163.488 16.4219L162.971 14H161.68ZM167.432 16.0176C166.998 16.0176 166.648 16.1024 166.381 16.2754C166.114 16.4474 165.917 16.7226 165.791 17.0996C165.666 17.4766 165.604 17.9757 165.604 18.5977V19.4375C165.604 20.0525 165.658 20.545 165.768 20.916C165.878 21.287 166.063 21.5603 166.324 21.7363C166.585 21.9123 166.944 22 167.402 22C167.848 22 168.203 21.9132 168.463 21.7402C168.723 21.5672 168.911 21.2959 169.027 20.9219C169.143 20.5479 169.201 20.0535 169.201 19.4375V18.5977C169.201 17.9767 169.142 17.4795 169.023 17.1055C168.904 16.7325 168.715 16.4573 168.457 16.2812C168.199 16.1052 167.859 16.0176 167.432 16.0176ZM169.879 16.1309V20.4453C169.879 20.9793 169.968 21.372 170.15 21.623C170.332 21.874 170.615 22 170.998 22C171.55 22 171.966 21.7332 172.242 21.1992H172.27L172.383 21.9062H173.4V16.1309H172.102V20.7188C172.052 20.8257 171.975 20.9134 171.871 20.9824C171.767 21.0524 171.66 21.0859 171.547 21.0859C171.415 21.0859 171.321 21.0319 171.264 20.9219C171.207 20.8119 171.178 20.6271 171.178 20.3691V16.1309H169.879ZM167.402 16.9121C167.584 16.9121 167.713 17.0072 167.785 17.1992C167.857 17.3902 167.893 17.6944 167.893 18.1094V19.9082C167.893 20.3352 167.857 20.644 167.785 20.832C167.713 21.02 167.585 21.1142 167.404 21.1152C167.222 21.1152 167.096 21.02 167.027 20.832C166.957 20.644 166.924 20.3352 166.924 19.9082V18.1094C166.924 17.6954 166.959 17.3912 167.031 17.1992C167.103 17.0082 167.226 16.9121 167.402 16.9121ZM161 23C159.9 23 159 23.9 159 25V32C159 33.1 159.9 34 161 34H175C176.1 34 177 33.1 177 32V25C177 23.9 176.1 23 175 23H161ZM168.049 25H169.105V27.5684H169.113C169.208 27.3824 169.345 27.2331 169.52 27.1191C169.695 27.0051 169.884 26.9492 170.086 26.9492C170.346 26.9492 170.549 27.0183 170.697 27.1562C170.845 27.2942 170.954 27.5172 171.02 27.8242C171.086 28.1322 171.117 28.5595 171.117 29.1055V29.877H171.119C171.119 30.604 171.03 31.1365 170.855 31.4785C170.68 31.8205 170.408 31.9922 170.037 31.9922C169.83 31.9922 169.643 31.9446 169.473 31.8496C169.303 31.7546 169.175 31.624 169.09 31.459H169.066L168.955 31.9199H168.049V25ZM161.486 25.2461H164.738V26.1309H163.648V31.9199H162.576V26.1309H161.486V25.2461ZM173.098 26.9512C173.474 26.9512 173.763 27.0202 173.965 27.1582C174.166 27.2962 174.308 27.5117 174.391 27.8027C174.473 28.0947 174.514 28.4977 174.514 29.0117V29.8477H172.678V30.0957C172.678 30.4087 172.686 30.6428 172.705 30.7988C172.724 30.9548 172.762 31.0696 172.82 31.1406C172.878 31.2126 172.968 31.248 173.09 31.248C173.254 31.248 173.367 31.1836 173.428 31.0566C173.489 30.9296 173.522 30.7189 173.527 30.4219L174.475 30.4766C174.48 30.5186 174.482 30.5783 174.482 30.6523C174.482 31.1033 174.358 31.4401 174.111 31.6621C173.864 31.8851 173.517 31.9961 173.066 31.9961C172.525 31.9961 172.146 31.8253 171.928 31.4863C171.71 31.1473 171.602 30.6231 171.602 29.9121V29.0605C171.602 28.3285 171.714 27.794 171.939 27.457C172.164 27.12 172.552 26.9512 173.098 26.9512ZM164.41 27.0449H165.51V30.625C165.51 30.842 165.534 30.9978 165.582 31.0898C165.63 31.1828 165.708 31.2285 165.82 31.2285C165.915 31.2285 166.009 31.1996 166.096 31.1406C166.184 31.0826 166.246 31.008 166.289 30.918V27.0449H167.389V31.9199H167.387H166.527L166.434 31.3223H166.408C166.174 31.7743 165.824 32 165.357 32C165.033 32 164.797 31.8936 164.643 31.6816C164.489 31.4696 164.41 31.1375 164.41 30.6875V27.0449ZM173.074 27.6934C172.957 27.6934 172.87 27.7289 172.814 27.7969C172.758 27.8659 172.721 27.9788 172.703 28.1348C172.684 28.2908 172.676 28.5277 172.676 28.8457V29.1953H173.479V28.8457C173.479 28.5327 173.468 28.2968 173.447 28.1348C173.427 27.9728 173.388 27.859 173.332 27.793C173.276 27.727 173.191 27.6934 173.074 27.6934ZM169.592 27.7285C169.486 27.7285 169.389 27.7705 169.299 27.8555C169.209 27.9405 169.144 28.0496 169.107 28.1816V30.9492C169.155 31.0342 169.218 31.0976 169.295 31.1406C169.372 31.1826 169.454 31.2051 169.545 31.2051C169.662 31.2051 169.753 31.1631 169.822 31.0781C169.891 30.9931 169.942 30.8504 169.971 30.6484C170 30.4474 170.014 30.1675 170.014 29.8125V29.1855C170.014 28.8035 170.003 28.5097 169.979 28.3027C169.955 28.0957 169.912 27.9464 169.852 27.8594C169.791 27.7724 169.704 27.7285 169.592 27.7285Z" fill="#111111"/>
<circle cx="240" cy="24" r="24" fill="#757575"/>
<path d="M236 15C233.239 15 231 17.239 231 20V28C231 30.761 233.239 33 236 33H244C246.761 33 249 30.761 249 28V20C249 17.239 246.761 15 244 15H236ZM246 17C246.552 17 247 17.448 247 18C247 18.552 246.552 19 246 19C245.448 19 245 18.552 245 18C245 17.448 245.448 17 246 17ZM240 19C242.761 19 245 21.239 245 24C245 26.761 242.761 29 240 29C237.239 29 235 26.761 235 24C235 21.239 237.239 19 240 19ZM240 21C239.204 21 238.441 21.3161 237.879 21.8787C237.316 22.4413 237 23.2044 237 24C237 24.7956 237.316 25.5587 237.879 26.1213C238.441 26.6839 239.204 27 240 27C240.796 27 241.559 26.6839 242.121 26.1213C242.684 25.5587 243 24.7956 243 24C243 23.2044 242.684 22.4413 242.121 21.8787C241.559 21.3161 240.796 21 240 21Z" fill="#111111"/>
</svg>
